<svg xmlns="http://www.w3.org/2000/svg" viewBox="0 0 477.867 477.867" width="512" height="512" xmlns:v="https://vecta.io/nano"><path d="M426.667 0H51.2C22.923 0 0 22.923 0 51.2v375.467c0 28.277 22.923 51.2 51.2 51.2h375.467c28.277 0 51.2-22.923 51.2-51.2V51.2c0-28.277-22.923-51.2-51.2-51.2zM153.6 375.467h-51.2A17.07 17.07 0 0 1 85.333 358.4a17.07 17.07 0 0 1 17.067-17.067h51.2a17.07 17.07 0 0 1 17.067 17.067 17.07 17.07 0 0 1-17.067 17.067zm0-119.467h-51.2a17.07 17.07 0 0 1-17.067-17.067 17.07 17.07 0 0 1 17.067-17.067h51.2a17.07 17.07 0 0 1 17.067 17.067A17.07 17.07 0 0 1 153.6 256zm0-119.467h-51.2a17.07 17.07 0 0 1-17.067-17.067A17.07 17.07 0 0 1 102.4 102.4h51.2a17.07 17.07 0 0 1 17.067 17.067 17.07 17.07 0 0 1-17.067 17.066zm221.867 238.934h-153.6A17.07 17.07 0 0 1 204.8 358.4a17.07 17.07 0 0 1 17.067-17.067h153.6a17.07 17.07 0 0 1 17.067 17.067 17.07 17.07 0 0 1-17.067 17.067zm0-119.467h-153.6a17.07 17.07 0 0 1-17.067-17.067 17.07 17.07 0 0 1 17.067-17.067h153.6a17.07 17.07 0 0 1 17.067 17.067A17.07 17.07 0 0 1 375.467 256zm0-119.467h-153.6a17.07 17.07 0 0 1-17.067-17.067 17.07 17.07 0 0 1 17.067-17.067h153.6a17.07 17.07 0 0 1 17.067 17.067 17.07 17.07 0 0 1-17.067 17.067z" fill="#1273eb"/></svg>